<svg width="51" height="42" viewBox="0 0 51 42" fill="none" xmlns="http://www.w3.org/2000/svg">
<path d="M9.43875 34.4374L11.9572 28.8056L10.8054 28.216C8.32873 26.9479 6.29784 25.2234 4.90007 23.236C3.50141 21.245 2.72978 19.0063 2.72801 16.6202C2.72889 14.7473 3.20481 12.9686 4.08223 11.3248C5.39821 8.86148 7.63693 6.70721 10.5096 5.17268C13.3807 3.63737 16.875 2.72722 20.65 2.72801C24.6862 2.72722 28.3919 3.77049 31.3588 5.50399C34.3292 7.23739 36.5457 9.65287 37.6769 12.3772L40.1954 11.3293C38.7959 7.96636 36.1399 5.1371 32.7351 3.14789C29.3269 1.15888 25.155 0.000884791 20.65 0C15.0325 0.00186789 9.92273 1.79475 6.1665 4.76244C4.29006 6.24721 2.75111 8.03046 1.67668 10.0382C0.603037 12.0442 -0.000882412 14.2794 2.37868e-06 16.6203C-0.0017672 19.6068 0.98389 22.4137 2.66932 24.806C4.12391 26.8734 6.0971 28.6387 8.42822 30.016L4.97557 37.7356L7.34475 37.4728C12.2085 36.9311 16.9398 35.7748 20.8667 34.5974L20.0834 31.9849C16.9257 32.9322 13.2395 33.8541 9.43875 34.4374Z" fill="black"/>
<path d="M48.3775 31.9552C49.6101 30.2076 50.3365 28.1421 50.3347 25.9451C50.3356 24.2241 49.8907 22.5786 49.104 21.1089C47.9211 18.9022 45.9887 17.0827 43.6107 15.811C41.2308 14.5395 38.3945 13.8112 35.3557 13.8103C31.3045 13.8121 27.6112 15.1033 24.8814 17.2594C23.5175 18.3384 22.3941 19.6384 21.6063 21.109C20.8196 22.5787 20.3747 24.2242 20.3755 25.9452C20.3737 28.579 21.4163 31.0141 23.1204 32.9579C24.8094 34.8866 27.1405 36.3616 29.8348 37.2256C32.6355 38.3108 38.5249 40.3755 44.7046 41.0664L47.0739 41.3292L44.4871 35.5481C46.0429 34.5785 47.3785 33.3734 48.3775 31.9552ZM42.1215 33.7748L40.9697 34.3644L42.6018 38.0125C37.691 37.1777 33.1213 35.5783 30.8222 34.6824L30.7805 34.6664L30.7379 34.653C28.4379 33.9302 26.5047 32.686 25.1745 31.1622C23.8416 29.633 23.1054 27.8552 23.1036 25.9451C23.1045 24.692 23.4215 23.503 24.0121 22.3956C24.8975 20.7368 26.4177 19.2671 28.3855 18.2166C30.3516 17.1652 32.7546 16.5374 35.3557 16.5382C38.8233 16.5364 41.9385 17.6562 44.1363 19.3985C45.2366 20.2689 46.1069 21.29 46.6974 22.3956C47.2889 23.503 47.6058 24.692 47.6068 25.9451C47.605 27.5417 47.0909 29.0389 46.146 30.3852C45.2019 31.7288 43.8193 32.9063 42.1215 33.7748Z" fill="black"/>
<path d="M23.0193 11.8684C22.7391 11.3358 22.3004 10.892 21.7569 10.5701C21.2137 10.2497 20.5579 10.054 19.8462 10.054C18.969 10.0518 18.2401 10.2804 17.69 10.5969C17.1378 10.9123 16.8996 11.2795 16.8996 11.2795C16.8068 11.36 16.7545 11.4772 16.7567 11.5998C16.7592 11.7225 16.8157 11.8377 16.9114 11.9143L17.6758 12.5265C17.8316 12.6512 18.0546 12.6466 18.2049 12.5155C18.2049 12.5155 18.2988 12.3458 18.5931 12.1777C18.889 12.0107 19.2727 11.8762 19.8462 11.8744C20.3465 11.8733 20.7827 12.06 21.0804 12.3151C21.2283 12.4414 21.3388 12.583 21.4065 12.7124C21.4747 12.843 21.4996 12.9571 21.4993 13.0437C21.4979 13.3366 21.441 13.5281 21.3588 13.6913C21.2962 13.8132 21.2144 13.9214 21.1091 14.0263C20.9521 14.1833 20.739 14.3285 20.5 14.4619C20.2608 14.5969 20.003 14.7157 19.7424 14.8593C19.4451 15.0239 19.1304 15.2604 18.8979 15.6154C18.782 15.7909 18.6913 15.9916 18.6338 16.2034C18.5754 16.4154 18.5491 16.6376 18.5491 16.8644C18.5491 17.1063 18.5491 17.3049 18.5491 17.3049C18.5491 17.5329 18.734 17.7178 18.962 17.7178H19.9568C20.1848 17.7178 20.3697 17.5329 20.3697 17.3049C20.3697 17.3049 20.3697 17.1063 20.3697 16.8644C20.3697 16.777 20.3796 16.7207 20.3892 16.6849C20.4056 16.6315 20.4148 16.6181 20.4417 16.5856C20.4692 16.5547 20.5246 16.5075 20.6268 16.4509C20.7761 16.367 21.016 16.2536 21.2877 16.1068C21.6945 15.8844 22.189 15.5825 22.606 15.0844C22.8135 14.8358 22.9969 14.5365 23.1234 14.1916C23.2511 13.8468 23.32 13.4592 23.3197 13.0437C23.3193 12.6229 23.2052 12.2232 23.0193 11.8684Z" fill="black"/>
<path d="M19.4596 18.7002C18.8395 18.7002 18.3367 19.2032 18.3367 19.8231C18.3367 20.443 18.8395 20.9458 19.4596 20.9458C20.0794 20.9458 20.582 20.443 20.582 19.8231C20.582 19.2032 20.0794 18.7002 19.4596 18.7002Z" fill="black"/>
<path d="M34.8066 28.9186C34.8095 29.0097 34.8439 29.1011 34.91 29.1927C34.9755 29.2841 35.0601 29.3361 35.1634 29.3484C35.4041 29.3771 35.5532 29.2656 35.6109 29.0143L37.151 22.9288C37.1778 22.8208 37.2032 22.6668 37.2269 22.4673C37.2637 22.1578 37.1909 21.8635 37.0079 21.5834C36.8251 21.3037 36.5376 21.1407 36.1457 21.094C35.7396 21.0457 35.4184 21.1398 35.1812 21.3763C34.9447 21.6064 34.8084 21.8726 34.7724 22.1752C34.7503 22.3609 34.7384 22.5164 34.7375 22.6416L34.8066 28.9186Z" fill="black"/>
<path d="M35.9021 30.7009C35.6961 30.4393 35.4142 30.287 35.0567 30.2445C34.7063 30.2027 34.396 30.2883 34.1267 30.5002C33.8573 30.7122 33.7024 30.99 33.6615 31.3338C33.6223 31.6638 33.7076 31.9703 33.918 32.2534C34.1293 32.5297 34.4104 32.6885 34.7609 32.7302C35.1114 32.7719 35.4212 32.687 35.691 32.4747C35.9599 32.263 36.1157 31.9815 36.1574 31.6308C36.1991 31.2801 36.1138 30.9702 35.9021 30.7009Z" fill="black"/>
</svg>
