<svg width="57" height="48" viewBox="0 0 57 48" fill="none" xmlns="http://www.w3.org/2000/svg">
<path d="M10.6886 39.282L13.5405 32.9044L12.2362 32.2367C9.43161 30.8007 7.13179 28.8479 5.54893 26.5973C3.96506 24.3426 3.09125 21.8075 3.08925 19.1054C3.09025 16.9845 3.62919 14.9703 4.62279 13.1089C6.11303 10.3193 8.64819 7.87978 11.9013 6.14206C15.1525 4.40345 19.1096 3.37278 23.3845 3.37367C27.955 3.37278 32.1514 4.55419 35.5112 6.51724C38.875 8.48018 41.385 11.2155 42.6661 14.3006L45.5179 13.1139C43.9332 9.30567 40.9254 6.10176 37.0698 3.84915C33.2103 1.59676 28.486 0.285426 23.3845 0.284424C17.0231 0.286539 11.2367 2.31683 6.98306 5.67749C4.85814 7.35888 3.11541 9.37826 1.8987 11.6519C0.682889 13.9235 -0.000999259 16.4547 2.69366e-06 19.1056C-0.00200121 22.4875 1.11417 25.6661 3.02278 28.3752C4.66999 30.7163 6.90446 32.7154 9.54427 34.2751L5.63443 43.0169L8.31732 42.7192C13.8252 42.1058 19.1829 40.7965 23.6298 39.4631L22.7428 36.5047C19.1669 37.5774 14.9927 38.6214 10.6886 39.282Z" fill="#030303"/>
<path d="M54.7838 36.4709C56.1795 34.492 57.0021 32.153 57.0001 29.665C57.0011 27.7161 56.4973 25.8527 55.6064 24.1884C54.2669 21.6895 52.0786 19.629 49.3857 18.189C46.6907 16.7491 43.4787 15.9243 40.0376 15.9233C35.45 15.9253 31.2676 17.3875 28.1763 19.8292C26.6318 21.051 25.3596 22.5232 24.4676 24.1886C23.5766 25.8528 23.0728 27.7162 23.0737 29.6651C23.0717 32.6477 24.2524 35.4052 26.1821 37.6064C28.0947 39.7905 30.7346 41.4608 33.7856 42.4392C36.9572 43.6682 43.6265 46.0062 50.6244 46.7886L53.3074 47.0862L50.3782 40.5397C52.1399 39.4416 53.6525 38.077 54.7838 36.4709ZM47.6993 38.5315L46.395 39.1992L48.2432 43.3303C42.6822 42.385 37.5073 40.5738 34.9038 39.5593L34.8566 39.5411L34.8083 39.526C32.2038 38.7075 30.0146 37.2986 28.5082 35.573C26.9988 33.8413 26.1651 31.828 26.1631 29.665C26.1641 28.246 26.5231 26.8995 27.1919 25.6455C28.1945 23.7671 29.9161 22.1027 32.1444 20.9131C34.3709 19.7225 37.0921 19.0116 40.0376 19.0125C43.9643 19.0105 47.4921 20.2785 49.981 22.2516C51.2269 23.2372 52.2124 24.3935 52.8812 25.6455C53.5509 26.8995 53.9098 28.246 53.911 29.665C53.909 31.473 53.3267 33.1685 52.2567 34.693C51.1876 36.2146 49.6219 37.548 47.6993 38.5315Z" fill="#030303"/>
<path d="M40.4222 24.3604C40.4228 24.1989 40.461 24.0393 40.5343 23.8918C40.6077 23.7444 40.7146 23.6124 40.8481 23.5045C40.9816 23.3965 41.1387 23.3149 41.3094 23.2649C41.4801 23.215 41.6605 23.1978 41.8391 23.2145C42.0176 23.2311 42.1903 23.2813 42.3459 23.3617C42.5016 23.4421 42.6368 23.551 42.7429 23.6813C42.8489 23.8116 42.9234 23.9605 42.9616 24.1184C42.9998 24.2762 43.0008 24.4395 42.9645 24.5977L41.6275 31.8526C41.5884 32.024 41.48 32.1761 41.3232 32.2795C41.1664 32.3829 40.9726 32.4302 40.7793 32.4121C40.5859 32.3941 40.407 32.312 40.2771 32.1819C40.1473 32.0517 40.0758 31.8828 40.0766 31.7079L40.4222 24.3604ZM39.2367 34.593C39.2718 34.288 39.4401 34.0081 39.7045 33.8149C39.969 33.6216 40.3079 33.5308 40.6467 33.5624C40.9855 33.594 41.2965 33.7455 41.5113 33.9835C41.726 34.2215 41.8269 34.5265 41.7918 34.8314C41.7566 35.1364 41.5883 35.4163 41.3239 35.6095C41.0595 35.8028 40.7206 35.8936 40.3817 35.862C40.0429 35.8304 39.7319 35.6789 39.5172 35.4409C39.3024 35.2029 39.2015 34.8979 39.2367 34.593Z" fill="black"/>
<path d="M18.4662 12.544C18.464 12.5945 18.4722 12.6448 18.4901 12.692C18.508 12.7391 18.5353 12.782 18.5703 12.8182C18.6053 12.8543 18.6473 12.8828 18.6936 12.902C18.74 12.9212 18.7898 12.9306 18.8399 12.9297H20.1192C20.3332 12.9297 20.5038 12.7533 20.5317 12.5394C20.6713 11.515 21.3691 10.7686 22.6128 10.7686C23.6765 10.7686 24.6504 11.3042 24.6504 12.5925C24.6504 13.584 24.0704 14.04 23.1539 14.7333C22.1103 15.4969 21.2838 16.3886 21.3427 17.8361L21.3474 18.175C21.349 18.2774 21.3906 18.3751 21.4631 18.447C21.5356 18.5188 21.6333 18.5591 21.735 18.5591H22.9927C23.0955 18.5591 23.1941 18.518 23.2668 18.4448C23.3395 18.3716 23.3804 18.2723 23.3804 18.1687V18.0048C23.3804 16.8836 23.8037 16.5572 24.9466 15.6843C25.891 14.9613 26.8757 14.1587 26.8757 12.4738C26.8757 10.1143 24.8969 8.97437 22.7306 8.97437C20.7659 8.97437 18.6135 9.89567 18.4662 12.544ZM20.8806 21.5432C20.8806 22.3755 21.5397 22.9908 22.4468 22.9908C23.3912 22.9908 24.041 22.3755 24.041 21.5432C24.041 20.6812 23.3897 20.0754 22.4453 20.0754C21.5397 20.0754 20.8806 20.6812 20.8806 21.5432Z" fill="black"/>
</svg>
