<svg width="30" height="30" viewBox="0 0 30 30" fill="none" xmlns="http://www.w3.org/2000/svg">
<rect x="1" y="1" width="28" height="28" rx="14" fill="white" stroke="#757575"/>
<g clip-path="url(#clip0_32_3292)">
<path fill-rule="evenodd" clip-rule="evenodd" d="M7.5 13.0946C7.5 10.8497 9.37629 9 11.625 9C13.007 9 14.2484 9.69867 15 10.7584C15.7516 9.69867 16.993 9 18.375 9C20.6237 9 22.5 10.8497 22.5 13.0946C22.5 14.6617 21.4569 15.718 20.6825 16.4854L20.6793 16.4886L15 22.0497L9.30748 16.4756L9.29488 16.462C9.25726 16.4213 9.21779 16.379 9.17685 16.3351C8.8716 16.0077 8.48441 15.5924 8.17075 15.1224C7.80714 14.5775 7.5 13.901 7.5 13.0946Z" fill="#FFAC4A"/>
</g>
<defs>
<clipPath id="clip0_32_3292">
<rect width="18" height="18" fill="white" transform="translate(6 6)"/>
</clipPath>
</defs>
</svg>
