<svg width="125" height="122" viewBox="0 0 125 122" fill="none" xmlns="http://www.w3.org/2000/svg">
<path d="M62.4995 70.2305C75.5632 70.2305 86.1534 59.8986 86.1534 47.1536C86.1534 34.4085 75.5632 24.0767 62.4995 24.0767C49.4359 24.0767 38.8457 34.4085 38.8457 47.1536C38.8457 59.8986 49.4359 70.2305 62.4995 70.2305Z" stroke="#FFAC4A" stroke-width="1.71429" stroke-linecap="round" stroke-linejoin="round"/>
<path d="M22.0996 106.232C26.3217 99.4707 32.2557 93.8826 39.331 90.0051C46.4064 86.1275 54.3851 84.0908 62.5004 84.0908C70.6156 84.0908 78.5944 86.1275 85.6697 90.0051C92.7451 93.8826 98.679 99.4707 102.901 106.232" stroke="#FFAC4A" stroke-width="1.71429" stroke-linecap="round" stroke-linejoin="round"/>
<path d="M62.5 121C96.4655 121 124 94.1371 124 61C124 27.8629 96.4655 1 62.5 1C28.5345 1 1 27.8629 1 61C1 94.1371 28.5345 121 62.5 121Z" stroke="#FFAC4A" stroke-width="1.71429" stroke-linecap="round" stroke-linejoin="round"/>
</svg>
