<svg width="42" height="42" viewBox="0 0 42 42" fill="none" xmlns="http://www.w3.org/2000/svg">
<path d="M29.4691 18.3753H24.5482C24.0382 18.3753 23.6247 17.9616 23.6247 17.4518V12.5306C23.6247 12.0208 23.2113 11.6074 22.7013 11.6074H19.2982C18.7882 11.6074 18.3747 12.0208 18.3747 12.5306V17.4518C18.3747 17.9616 17.9613 18.3753 17.4513 18.3753H12.5304C12.0203 18.3753 11.6069 18.7887 11.6069 19.2988V22.7018C11.6069 23.2116 12.0203 23.6253 12.5304 23.6253H17.4513C17.9613 23.6253 18.3747 24.0387 18.3747 24.5488V29.4694C18.3747 29.9796 18.7882 30.3929 19.2982 30.3929H22.7013C23.2113 30.3929 23.6247 29.9796 23.6247 29.4694V24.5488C23.6247 24.0387 24.0382 23.6253 24.5482 23.6253H29.4691C29.9791 23.6253 30.3926 23.2116 30.3926 22.7018V19.2988C30.3926 18.7887 29.9791 18.3753 29.4691 18.3753Z" fill="black"/>
<path d="M21 0C9.40185 0 0 9.40218 0 21C0 32.5982 9.40185 42 21 42C32.5978 42 42 32.5982 42 21C42 9.40218 32.5978 0 21 0ZM21 36.75C12.3153 36.75 5.25 29.6847 5.25 21C5.25 12.3156 12.3153 5.25 21 5.25C29.6844 5.25 36.75 12.3156 36.75 21C36.75 29.6847 29.6844 36.75 21 36.75Z" fill="black"/>
</svg>
