<svg width="38" height="38" viewBox="0 0 38 38" fill="none" xmlns="http://www.w3.org/2000/svg">
<path d="M19 19C21.5196 19 23.9359 17.9991 25.7175 16.2175C27.4991 14.4359 28.5 12.0196 28.5 9.5C28.5 6.98044 27.4991 4.56408 25.7175 2.78249C23.9359 1.00089 21.5196 0 19 0C16.4804 0 14.0641 1.00089 12.2825 2.78249C10.5009 4.56408 9.5 6.98044 9.5 9.5C9.5 12.0196 10.5009 14.4359 12.2825 16.2175C14.0641 17.9991 16.4804 19 19 19ZM25.3333 9.5C25.3333 11.1797 24.6661 12.7906 23.4783 13.9783C22.2906 15.1661 20.6797 15.8333 19 15.8333C17.3203 15.8333 15.7094 15.1661 14.5217 13.9783C13.3339 12.7906 12.6667 11.1797 12.6667 9.5C12.6667 7.8203 13.3339 6.20939 14.5217 5.02166C15.7094 3.83393 17.3203 3.16667 19 3.16667C20.6797 3.16667 22.2906 3.83393 23.4783 5.02166C24.6661 6.20939 25.3333 7.8203 25.3333 9.5ZM38 34.8333C38 38 34.8333 38 34.8333 38H3.16667C3.16667 38 0 38 0 34.8333C0 31.6667 3.16667 22.1667 19 22.1667C34.8333 22.1667 38 31.6667 38 34.8333ZM34.8333 34.8207C34.8302 34.0417 34.3457 31.6983 32.1987 29.5513C30.134 27.4867 26.2485 25.3333 19 25.3333C11.7483 25.3333 7.866 27.4867 5.80133 29.5513C3.65433 31.6983 3.173 34.0417 3.16667 34.8207H34.8333Z" fill="#FF8A00"/>
</svg>
