<svg width="33" height="35" viewBox="0 0 33 35" fill="none" xmlns="http://www.w3.org/2000/svg">
<path d="M17.3986 0.367211C17.2807 0.25081 17.1407 0.158459 16.9865 0.095447C16.8323 0.0324349 16.6669 0 16.5 0C16.3331 0 16.1677 0.0324349 16.0135 0.095447C15.8593 0.158459 15.7193 0.25081 15.6014 0.367211L0.370617 15.3663C0.252828 15.4825 0.159468 15.6206 0.0958756 15.7724C0.0322828 15.9242 -0.000295857 16.0869 2.02441e-06 16.2512V33.7501C2.02441e-06 34.0816 0.133724 34.3995 0.371751 34.6339C0.609778 34.8683 0.932612 35 1.26923 35H12.6923C13.0289 35 13.3518 34.8683 13.5898 34.6339C13.8278 34.3995 13.9615 34.0816 13.9615 33.7501V23.7507H19.0385V33.7501C19.0385 34.0816 19.1722 34.3995 19.4102 34.6339C19.6482 34.8683 19.9711 35 20.3077 35H31.7308C32.0674 35 32.3902 34.8683 32.6283 34.6339C32.8663 34.3995 33 34.0816 33 33.7501V16.2512C33.0003 16.0869 32.9677 15.9242 32.9041 15.7724C32.8405 15.6206 32.7472 15.4825 32.6294 15.3663L29.1923 11.984V3.752C29.1923 3.4205 29.0586 3.10257 28.8206 2.86817C28.5825 2.63376 28.2597 2.50207 27.9231 2.50207H25.3846C25.048 2.50207 24.7252 2.63376 24.4871 2.86817C24.2491 3.10257 24.1154 3.4205 24.1154 3.752V6.98429L17.3986 0.367211ZM2.53846 32.5002V16.7687L16.5 3.01954L30.4615 16.7687V32.5002H21.5769V22.5008C21.5769 22.1693 21.4432 21.8514 21.2052 21.617C20.9671 21.3826 20.6443 21.2509 20.3077 21.2509H12.6923C12.3557 21.2509 12.0329 21.3826 11.7948 21.617C11.5568 21.8514 11.4231 22.1693 11.4231 22.5008V32.5002H2.53846Z" fill="#FF8A00"/>
</svg>
